# xmcd
#
# Track frame offsets:
#	150
#	20732
#	34352
#	55212
#	65405
#	83557
#	97965
#	118292
#	133872
#	148637
#	182765
#	201292
#	219657
#
# Disc length: 3214 seconds
#
# Revision: 2
# Processed by: cddbd v1.4PL0 Copyright (c) Steve Scherf et al.
# Submitted via: audiograbber 1.81.03
#
DISCID=c60c8c0d
DTITLE=Elvin Bishop - Ace In The Hole
DYEAR=1995
DGENRE=Blues
TTITLE0=Another Mule Kickin' In Your Stall
TTITLE1=Driving Wheel
TTITLE2=Give Me Some of That Money
TTITLE3=Ace In The Hole
TTITLE4=Party 'Til The Cows Come Home
TTITLE5=Think
TTITLE6=Home of The Blues
TTITLE7=Pigmeat On The Line
TTITLE8=Ain't That Love
TTITLE9=Fishin'
TTITLE10=Blue Flame
TTITLE11=Talkin' Mood
TTITLE12=Fooled Around And Fell In Love
EXTD=
EXTT0=
EXTT1=
EXTT2=
EXTT3=
EXTT4=
EXTT5=
EXTT6=
EXTT7=
EXTT8=
EXTT9=
EXTT10=
EXTT11=
EXTT12=
PLAYORDER=
